<?xml version="1.0" encoding="utf-8"?>
<svg viewBox="0 0 495 330" xmlns="http://www.w3.org/2000/svg" xmlns:xlink="http://www.w3.org/1999/xlink" xmlns:bx="https://boxy-svg.com">
  <defs>
    <radialGradient gradientUnits="userSpaceOnUse" cx="77.19" cy="103.461" r="8.95" id="gradient-1" gradientTransform="matrix(0.455619, 0.972963, -0.696582, 0.502503, 116.766711, -24.568491)">
      <stop offset="0" style="stop-color: rgb(255, 104, 180);"/>
      <stop offset="1" style="stop-color: rgb(146, 204, 200);"/>
    </radialGradient>
    <radialGradient gradientUnits="userSpaceOnUse" cx="414.411" cy="106.187" r="55.268" id="gradient-4" gradientTransform="matrix(-0.561541, -1.12197, 0.89425, -0.447567, 545.809396, 668.602723)">
      <stop offset="0" style="stop-color: rgb(255, 255, 255);"/>
      <stop offset="1" style="stop-color: rgba(123, 255, 28, 1)"/>
    </radialGradient>
    <pattern id="pattern-0-0" patternTransform="matrix(1.639197, -0.000001, 0.000001, 1.673838, 354.416178, 99.307802)" xlink:href="#pattern-0"/>
    <pattern x="0" y="0" width="25" height="25" patternUnits="userSpaceOnUse" viewBox="0 0 100 100" id="pattern-0">
      <rect x="0" y="0" width="50" height="100" style="fill: black;"/>
    </pattern>
    <linearGradient gradientUnits="userSpaceOnUse" x1="680.367" y1="369.945" x2="680.367" y2="466.203" id="gradient-0" gradientTransform="matrix(-0.297898, -0.9546, 0.809036, -0.265555, 534.830425, 1209.191098)">
      <stop offset="0" style="stop-color: rgb(255, 255, 255);"/>
      <stop offset="1" style="stop-color: rgba(200, 1, 1, 1)"/>
    </linearGradient>
    <linearGradient gradientUnits="userSpaceOnUse" x1="95.692" y1="95.706" x2="95.692" y2="115.702" id="gradient-3" gradientTransform="matrix(-0.619643, 0.965313, -0.795933, -0.65223, 234.702697, 80.689298)">
      <stop offset="0" style="stop-color: rgb(160, 8, 41);"/>
      <stop offset="1" style="stop-color: rgba(204, 204, 204, 1)"/>
    </linearGradient>
    <linearGradient gradientUnits="userSpaceOnUse" x1="1800.462" y1="472.701" x2="1800.462" y2="3122.118" id="gradient-2">
      <stop offset="0" style="stop-color: rgba(255, 255, 255, 0.86)"/>
      <stop offset="1" style="stop-color: rgba(204, 204, 204, 0.86)"/>
    </linearGradient>
    <linearGradient gradientUnits="userSpaceOnUse" x1="3400.471" y1="284.304" x2="3400.471" y2="1192.035" id="gradient-5">
      <stop offset="0" style="stop-color: rgba(255, 255, 255, 0.86)"/>
      <stop offset="1" style="stop-color: rgba(204, 204, 204, 0.86)"/>
    </linearGradient>
    <linearGradient gradientUnits="userSpaceOnUse" x1="3251.31" y1="158.794" x2="3251.31" y2="747.543" id="gradient-6">
      <stop offset="0" style="stop-color: rgba(255, 255, 255, 0.86)"/>
      <stop offset="1" style="stop-color: rgba(204, 204, 204, 0.86)"/>
    </linearGradient>
    <linearGradient gradientUnits="userSpaceOnUse" x1="3416.7" y1="1302.562" x2="3416.7" y2="1343.657" id="gradient-7">
      <stop offset="0" style="stop-color: rgba(255, 255, 255, 0.86)"/>
      <stop offset="1" style="stop-color: rgba(204, 204, 204, 0.86)"/>
    </linearGradient>
    <linearGradient gradientUnits="userSpaceOnUse" x1="3311.326" y1="1303.544" x2="3311.326" y2="1675.624" id="gradient-8">
      <stop offset="0" style="stop-color: rgba(255, 255, 255, 0.86)"/>
      <stop offset="1" style="stop-color: rgba(204, 204, 204, 0.86)"/>
    </linearGradient>
    <linearGradient gradientUnits="userSpaceOnUse" x1="3431.39" y1="194.475" x2="3431.39" y2="1680.943" id="gradient-9">
      <stop offset="0" style="stop-color: rgba(255, 255, 255, 0.86)"/>
      <stop offset="1" style="stop-color: rgba(204, 204, 204, 0.86)"/>
    </linearGradient>
    <linearGradient gradientUnits="userSpaceOnUse" x1="18.623" y1="4.036" x2="18.623" y2="29.328" id="gradient-10" gradientTransform="matrix(0.951903, 0.374888, -0.431876, 1.641645, 13.561778, -25.799705)">
      <stop offset="0" style="stop-color: rgba(255, 255, 255, 1)"/>
      <stop offset="1" style="stop-color: rgba(204, 204, 204, 1)"/>
    </linearGradient>
    <linearGradient gradientUnits="userSpaceOnUse" x1="20.065" y1="32.972" x2="20.065" y2="56.954" id="gradient-11">
      <stop offset="0" style="stop-color: rgba(255, 255, 255, 1)"/>
      <stop offset="1" style="stop-color: rgba(204, 204, 204, 1)"/>
    </linearGradient>
    <linearGradient gradientUnits="userSpaceOnUse" x1="46.876" y1="9.001" x2="46.876" y2="9.001" id="gradient-12">
      <stop offset="0" style="stop-color: rgba(255, 255, 255, 1)"/>
      <stop offset="1" style="stop-color: rgba(204, 204, 204, 1)"/>
    </linearGradient>
    <linearGradient gradientUnits="userSpaceOnUse" x1="46.876" y1="16.501" x2="46.876" y2="16.501" id="gradient-13">
      <stop offset="0" style="stop-color: rgba(255, 255, 255, 1)"/>
      <stop offset="1" style="stop-color: rgba(204, 204, 204, 1)"/>
    </linearGradient>
    <linearGradient gradientUnits="userSpaceOnUse" x1="46.876" y1="24.001" x2="46.876" y2="24.001" id="gradient-14">
      <stop offset="0" style="stop-color: rgba(255, 255, 255, 1)"/>
      <stop offset="1" style="stop-color: rgba(204, 204, 204, 1)"/>
    </linearGradient>
    <linearGradient gradientUnits="userSpaceOnUse" x1="46.876" y1="37.55" x2="46.876" y2="37.55" id="gradient-15">
      <stop offset="0" style="stop-color: rgba(255, 255, 255, 1)"/>
      <stop offset="1" style="stop-color: rgba(204, 204, 204, 1)"/>
    </linearGradient>
    <linearGradient gradientUnits="userSpaceOnUse" x1="46.876" y1="45.05" x2="46.876" y2="45.05" id="gradient-16">
      <stop offset="0" style="stop-color: rgba(255, 255, 255, 1)"/>
      <stop offset="1" style="stop-color: rgba(204, 204, 204, 1)"/>
    </linearGradient>
    <linearGradient gradientUnits="userSpaceOnUse" x1="46.876" y1="52.55" x2="46.876" y2="52.55" id="gradient-17">
      <stop offset="0" style="stop-color: rgba(255, 255, 255, 1)"/>
      <stop offset="1" style="stop-color: rgba(204, 204, 204, 1)"/>
    </linearGradient>
  </defs>
  <path d="M 0 79.16 L 495 79.16 L 495 261.679 L 0 261.679 L 0 79.16 Z" style="stroke: rgb(0, 0, 0); fill: rgb(15, 11, 108);"/>
  <text style="fill: url(#gradient-1); fill-rule: evenodd; font-family: Arial, sans-serif; font-size: 17.9px; paint-order: stroke markers; white-space: pre;" transform="matrix(8.747009, 0, 0, 7.174821, -291.787842, -579.957092)" x="70.332" y="111.893"> N</text>
  <path d="M 374.905 70.284 L 430.173 170.178 L 319.637 170.178 L 374.905 70.284 Z" style="paint-order: stroke markers; stroke: url(#pattern-0-0); stroke-linecap: round; stroke-linejoin: round; stroke-dashoffset: 33px; fill-rule: nonzero; fill: url(#gradient-4);" transform="matrix(-0.006871, 0.999976, -0.999976, -0.006871, 197.959808, -196.710815)" bx:shape="triangle 319.637 70.284 110.536 99.894 0.5 0 1@e1eb2747"/>
  <path d="M 680.368 369.945 L 741.56 466.203 L 619.175 466.203 L 680.368 369.945 Z" style="stroke: rgba(255, 255, 255, 0); paint-order: stroke; fill-rule: evenodd; fill: url(#gradient-0);" transform="matrix(0.84967, -0.527314, 0.527314, 0.84967, -513.432434, 163.548401)" bx:shape="triangle 619.175 369.945 122.385 96.258 0.5 0 1@aa7b6fb3"/>
  <text style="fill-rule: evenodd; font-family: Arial, sans-serif; font-size: 17.9px; paint-order: stroke markers; white-space: pre; fill: url(#gradient-3);" transform="matrix(8.790853, 0, 0, 7.147731, -528.865051, -576.782104)" x="70.332" y="111.893"> S</text>
  <g transform="matrix(0.011944, 0, 0, 0.009992, 32.379395, 157.83075)" style="">
    <path d="m3549.4 3099.8c-9.8242-26.474-6.8223-70.032-7.0881-98.172-0.282-29.852 1.6582-69.934-8.0056-98.324-5.7158 1.4744-11.365 3.1711-16.947 5.0906 21.376-6.9329 21.43-21.024 16.124-44.129-5.5007-23.954-5.4248-51.816-7.825-77.025 2.6951-16.466-2.0476-45.888-4.4219-62.776-3.4568-24.588-3.228-49.757-10.648-73.9-11.683-38.016-28.26-87.374-63.06-110.34-42.096-27.784-89.178-51.042-128.62-82.547-0.4907 4.6006-15.099-14.3-21.19-19.35-18.149-15.05-37.042-29.931-55.834-44.27-32.617-24.888-67.092-47.004-102.33-67.847-61.867-36.598-167.23-15.708-227.17-8.6062-34.068 4.0381-86.006 8.9597-125.84 19.314-35.618 9.2571-69.06 26.409-105.21 33.357-7.7268 1.4849-25.662 11.073-33.288 8.613-12.79-4.1252-27.252-36.819-34.504-47.464 9.8157-0.8257 12.551-3.9526 8.2063-9.3809 4.8125 5.8921 56.535 32.654 46.332 9.8181-14.913-33.377-43.786-65.074-64.324-95.348-45.894-67.656-91.789-135.31-137.7-202.96-30.739-45.298-71.484-141.72-134.52-146.7-9.8589-0.7789-18.753 1.0236-28.37 2.5964-12.11 1.9805-16.662-17.838-29.226-18.657-24.665-1.6078-59.572 22.992-66.479 46.504-5.625 19.148-24.82 1.949-21.416-9.6885 3.2893-11.244 17.156-18.228 21.416-30.187 6.3579-17.851-3.5713-35.42-13.895-49.702-36.49-50.483-92.08-102.94-31.801-161.66 44.86-43.701 85.506-73.17 61.995-142.13-9.187-26.944-28.999-52.208-47.953-73.021-7.814-8.5807-67.085-65.103-69.975-57.091 3.7939-10.515-35.399-32.509-42.462-37.738-6.2324-4.6143-56.482-33.645-56.482-38.381-23.514-17.949-48.177-34.126-72.009-51.64-11.88-8.7303-23.535-17.774-34.793-27.296-5.2109-9.8481-11.45-32.033-18.444-39.359-1.2056-15.318 7.9413-59.987-4.2334-71.958-2.686-21.528-12.698-44.412-19.858-64.83-18.405-52.488-41.604-103.3-69.619-151.36-117.74-201.98-318.37-349.18-543.83-408.48-474.12-124.71-981.76 149.71-1136.3 614.4-25.452 76.526-37.057 155.2-46.505 235.02-10.349 87.427-17.268 178.95-2.6209 266.33 12.393 73.937 30.416 146.21 57.642 216.64 13.347 34.528 29.93 68.962 47.824 101.25 9.6793 17.466 44.917 90.81 64.137 91.2-11.276-0.2283 13.268 33.214 18.053 41.656 12.512 22.076 35.61 9.7883 58.832 6.2358-16.962 2.595-33.924 5.1892-50.887 7.7837 29.737 98.875 123.51 169.89 195.71 236.13 37.682 41.346 73.142 84.664 94.29 136.96 23.033 56.96 40.969 116.84 61.942 174.92-2.5742 23.598 14.605 49.52 16.165 73.03 1.6789 25.298 7.3073 50.1 10.581 75.177 7.5117 57.538 3.4485 115.63 1.5599 173.17-1.6037 48.86-7.2139 93.859-15.794 142.52-5.1104 28.979 21.548 24.096 41.496 24.096 39.153-1e-3 78.305-2e-3 117.46-0.0029 279.66-0.0073 559.32-0.0188 838.99-0.0356 19.927-0.0012 171.22 9.1765 173.21-7.2197 7.1976-59.153 14.687-117.95 24.198-176.79 8.4559-53.544 24.08-111.36 20.371-165.74-3.5906-52.63-15.975-102.73-16.087-155.9-0.0056-8.7625-0.0076-17.525-0.0061-26.287-9.5625-0.5825-18.919 0.5454-28.069 3.3835 21.566-4.9641 29.442 1.7361 32.072-22.574 2.0018-18.491 8.5367-36.556 22.428-49.47 30.128-28.008 64.889-20.478 101.28-31.826 84.787-26.439 181.68-12.898 265.69-42.649 35.478-12.564 45.097-40.148 61.529-70.556 4.3154-7.9861 28.656-96.497 17.55-94.514-0.0303-33.928-8.0027-78.151-28.36-106.02-10.003-13.696-22.702-24.482-32.74-38.17-5.9502-8.1147-11.901-16.229-17.852-24.343-14.996-20.445-3.4844-10.091-18.725-4.665 16.641-5.9243-1.2642-55.512 0.6721-72.93 1.7268-15.533 11.446-70.054 28.377-77.618 46.487 84.097 97.112 165.84 147.29 247.76 26.023 42.484 52.124 84.92 78.329 127.29 6.6409 10.738 72.438 115.43 75.21 112.5-7.6194 8.0469 54.709 88.352 62.723 102.31 13.767 23.975 8.2554 28.044 8.2156 52.778-0.0261 16.296 5.2781 25.359-8.6509 34.813-9.0381 6.1345-16.728 14.301-21.897 23.98-19.971 37.397 33.627 69.324 62.069 75.699 13.438 3.0132-7.6316 30.515-7.9634 37.135-0.5874 11.718 35.068 51.56 40.07 39.824 10.888 8.2129 6.7944 29.653 18.207 40.697 9.4824 9.1763 21.988 13.597 34.135 17.92 6.2246 11.114 14.203 21.118 22.9 30.38 31.374 33.409 55.926 70.655 84.143 106.61 12.81 16.322 21.677 36.594 31.731 55.003 7.9929 14.634 13.868 52.02 31.578 58.196 23.152 8.0732 60.214 0.6853 84.702 0.6257 23.174-0.0562 48.862 3.8813 65.374-7.647-2.4529 1.6982-3.8455 4.2041-4.1777 7.5181 94.485 2.9983 189.42 0.4795 283.96 0.4663 50.248-0.0068 100.5-0.0151 150.74-0.0239 15.845-0.0028 100.91 14.016 88.505-19.397-4.0725-10.974 0.8865 2.3887 0 0zm-1383.5-1446c0.1167 0.521 0.1914 1.0514 0.2466 1.5862-0.0552-0.5348-0.1299-1.0652-0.2466-1.5862zm-62.195-256.62c0.0107-0.0103 0.0195-0.0216 0.03-0.0321-0.0105 0.0104-0.0193 0.0217-0.03 0.0321zm-0.0669 0.0585c-0.2747 0.2596-0.5781 0.5002-0.9067 0.7249 0.3286-0.2246 0.632-0.4652 0.9067-0.7249zm153.17 888.85c2.3962-0.4021 4.7859-0.8516 7.1729-1.3181-2.387 0.4665-4.7767 0.916-7.1729 1.3181zm1247.7 626.03c1.4517-0.3481 2.8904-0.7278 4.3196-1.1301-1.4293 0.4023-2.868 0.782-4.3196 1.1301zm-897.03-588.2c-1.5808-2.0791-3.1614-4.158-4.7419-6.2368 3.3574 4.2561 6.5591 8.6267 9.605 13.112-1.6212-2.2918-3.2423-4.5833-4.8631-6.8748-1.6045-2.0659 1.2832 2.5632 0 0zm13.488-2.7129c-0.5205-0.5229-1.0955-1.0037-1.7146-1.4497 0.6191 0.446 1.1941 0.9267 1.7146 1.4497zm-21.891 355.29c-1.2751 0.2429-2.5513 0.4788-3.8291 0.7 1.2778-0.2213 2.554-0.4571 3.8291-0.7zm172.19 225.23c-0.2322 0.0347-0.4644 0.0703-0.6965 0.1062 0.2321-0.0359 0.4643-0.0716 0.6965-0.1062z" style="fill: url(#gradient-2);"/>
    <path d="m3533.3 542.69c-5.0645-75.705-26.428-134.13-64.045-175.28-21.597-23.598-46.71-39.418-75.339-47.449l-127.11-35.657c28.629 8.031 53.742 23.852 75.339 47.449 37.617 41.147 58.98 99.574 64.045 175.28 5.8262 87.094-18.825 190.73-73.956 310.86-18.487 41.982-31.262 73.186-38.384 93.618-10.255 28.412-17.196 59.011-20.763 91.806-3.5667 32.794-4.0994 67.773-1.6096 104.99 0.8865 13.253 1.6877 23.197 2.4536 29.785 0.7363 6.5999 1.6052 12.695 2.5916 18.286l127.11 35.657c-0.9863-5.5913-1.8552-11.686-2.5916-18.286-0.7659-6.5889-1.5669-16.532-2.4536-29.786-2.4897-37.219-1.957-72.198 1.6096-104.99 3.5664-32.794 10.508-63.393 20.763-91.805 7.1223-20.432 19.897-51.636 38.384-93.618 55.131-120.13 79.782-223.77 73.956-310.86z" style="fill: url(#gradient-5);"/>
    <path d="m3474.2 174.3c-54.231-15.213-115.52-19.235-183.86-12.052-3.447 0.3623-6.8655 0.7546-10.271 1.1606-0.9155 0.1094-1.8286 0.2212-2.741 0.3335-0.9807 0.1206-1.968 0.2339-2.9451 0.3584-1.3091 0.1665-2.5994 0.3525-3.9021 0.5259-1.554 0.2065-3.1096 0.4114-4.655 0.6272-2.1279 0.2971-4.2407 0.6106-6.3521 0.9255-1.4761 0.22-2.957 0.4351-4.4248 0.6638-2.2266 0.3469-4.4346 0.7139-6.6426 1.0808-1.3271 0.2207-2.6626 0.4324-3.9829 0.6602-2.605 0.4492-5.188 0.9224-7.7666 1.3999-0.8989 0.1663-1.8081 0.3215-2.7036 0.4915-3.4651 0.657-6.9065 1.3391-10.324 2.0466-0.8267 0.1714-1.6404 0.3564-2.4644 0.5308-2.5837 0.5461-5.1626 1.0979-7.7188 1.6736-1.2451 0.2803-2.4751 0.5767-3.7134 0.864-2.1167 0.491-4.2329 0.9824-6.3306 1.4937-1.3608 0.3315-2.7087 0.6775-4.0615 1.0178-1.9551 0.4917-3.9084 0.9849-5.8467 1.4944-1.3972 0.3674-2.7842 0.7461-4.1729 1.1226-1.8738 0.5083-3.7437 1.0205-5.6016 1.5457-1.4028 0.3965-2.7983 0.8008-4.1919 1.2068-1.8262 0.5322-3.6455 1.0713-5.4561 1.6196-1.3879 0.4207-2.7717 0.8457-4.1506 1.2759-1.7993 0.5615-3.5891 1.1331-5.3728 1.7109-1.3591 0.4404-2.7173 0.8818-4.0674 1.3318-1.7964 0.5989-3.5806 1.2109-5.3613 1.8269-1.3076 0.4521-2.6174 0.9016-3.9163 1.363-1.8296 0.6497-3.6431 1.3164-5.4553 1.9844-1.2251 0.4514-2.4561 0.8967-3.6733 1.3567-1.9429 0.7339-3.8662 1.4883-5.7891 2.2434-1.0618 0.4167-2.1326 0.824-3.1882 1.2473-2.4373 0.9773-4.8518 1.979-7.2571 2.9907-0.522 0.2197-1.0527 0.4299-1.5732 0.6511-0.0386 0.0164-0.0781 0.0317-0.1165 0.0481-2.6589 1.1309-5.2908 2.2905-7.9099 3.4639-0.5381 0.241-1.0767 0.4812-1.613 0.7241-2.5903 1.1726-5.1628 2.3643-7.7139 3.5784-0.4543 0.2163-0.9048 0.4363-1.3577 0.6538-2.4558 1.179-4.8958 2.375-7.3152 3.5928-0.2429 0.1223-0.4888 0.2419-0.7314 0.3645-2.5417 1.2856-5.0581 2.5981-7.5596 3.9268-0.5205 0.2764-1.041 0.553-1.5598 0.8313-2.4644 1.322-4.9121 2.6621-7.3369 4.0261-0.3796 0.2134-0.7554 0.4309-1.1338 0.6455-2.2908 1.2979-4.5645 2.6138-6.8196 3.9495-0.3164 0.1873-0.636 0.3716-0.9517 0.5598-2.387 1.4219-4.75 2.8696-7.0969 4.3342-0.4954 0.3088-0.9895 0.6189-1.4829 0.9299-2.3408 1.4746-4.6658 2.9658-6.9666 4.4829-0.2944 0.1943-0.5852 0.3921-0.8789 0.5869-2.1638 1.4351-4.3088 2.8896-6.4373 4.3623-0.3606 0.2495-0.7241 0.4961-1.0837 0.7468-1.7688 1.2324-3.5286 2.4746-5.2727 3.7332-0.397 0.2866-0.7854 0.5818-1.1812 0.8696-0.7456 0.5422-1.4849 1.0913-2.2258 1.6384-1.6033 1.1836-3.196 2.3782-4.7781 3.5842-0.7449 0.5681-1.4907 1.1355-2.231 1.7085-1.7883 1.384-3.5613 2.7844-5.3223 4.1978-0.4556 0.3655-0.9175 0.7241-1.3711 1.0918-2.1919 1.7756-4.3611 3.5757-6.5103 5.397-0.5605 0.4746-1.1121 0.9587-1.6694 1.4368-1.604 1.375-3.1982 2.7607-4.7781 4.1614-0.7109 0.6304-1.4182 1.2649-2.1243 1.9004-1.4873 1.3386-2.9626 2.6899-4.4282 4.0515-0.6372 0.592-1.2778 1.1802-1.9109 1.7766-2.0525 1.9331-4.0901 3.8823-6.0999 5.8611-2.0225 1.9907-4.0044 3.9971-5.9634 6.0122-0.6125 0.6301-1.2129 1.2649-1.8191 1.8972-1.3567 1.415-2.7009 2.835-4.0266 4.262-0.6643 0.7151-1.3247 1.4314-1.981 2.1494-1.3098 1.4324-2.6011 2.8718-3.8799 4.3162-0.5725 0.6467-1.1514 1.2913-1.7178 1.9404-0.2275 0.2607-0.4636 0.5186-0.6902 0.7798-1.0457 1.2056-2.0586 2.4236-3.0828 3.6375-0.6089 0.7214-1.231 1.4377-1.8325 2.1621-1.792 2.1587-3.5542 4.3289-5.2793 6.5134-0.0229 0.0288-0.0469 0.0571-0.0696 0.0859-1.7473 2.2141-3.4551 4.4434-5.1335 6.6838-0.5488 0.7324-1.0767 1.4729-1.6179 2.208-1.1157 1.5154-2.2283 3.032-3.313 4.5596-0.6296 0.8867-1.2407 1.7808-1.8601 2.6716-0.9666 1.3911-1.9297 2.7832-2.8706 4.1841-0.6394 0.9517-1.2646 1.9089-1.8923 2.8652-0.8909 1.3574-1.7744 2.7178-2.6414 4.0845-0.6233 0.9827-1.2378 1.9688-1.8486 2.9563-0.842 1.3606-1.6724 2.7258-2.491 4.0955-0.594 0.9937-1.1843 1.989-1.7661 2.9878-0.8091 1.3889-1.6013 2.7847-2.3867 4.1829-0.5535 0.9854-1.1089 1.97-1.6504 2.96-0.7957 1.4546-1.5691 2.9175-2.3394 4.3821-0.4951 0.9414-0.9983 1.8801-1.4829 2.8259-0.8281 1.6162-1.6284 3.2432-2.4258 4.8713-0.3933 0.8035-0.8 1.6016-1.186 2.408-1.1633 2.4302-2.2971 4.8718-3.3921 7.3284-0.0032 0.0071-0.0066 0.0142-0.0098 0.021-1.0991 2.4663-2.1584 4.9475-3.1887 7.4402-0.3362 0.813-0.6514 1.634-0.98 2.45-0.6792 1.6858-1.3555 3.3728-2.0034 5.0708-0.3755 0.9834-0.7324 1.9741-1.0972 2.9619-0.5708 1.5452-1.1384 3.0918-1.6836 4.6472-0.3701 1.0554-0.7261 2.1165-1.0845 3.1765-0.5085 1.5049-1.01 3.0125-1.4949 4.5266-0.3489 1.0902-0.6892 2.1838-1.0256 3.2787-0.4629 1.5052-0.9141 3.0151-1.3538 4.5294-0.3198 1.1016-0.636 2.2046-0.9434 3.311-0.4268 1.5359-0.8369 3.0784-1.24 4.6235-0.2842 1.09-0.5706 2.179-0.843 3.2736-0.4001 1.6078-0.7781 3.2242-1.1526 4.8419-0.2407 1.0393-0.4895 2.0754-0.7195 3.1187-0.3945 1.7888-0.761 3.5884-1.1245 5.3892-0.178 0.8817-0.3694 1.7583-0.5398 2.6428-0.5159 2.6747-1.0022 5.3608-1.45 8.0618-0.0024 0.0149-0.0056 0.0294-0.0081 0.0442-0.4497 2.7153-0.8601 5.446-1.2412 8.188-0.1252 0.9009-0.2295 1.8098-0.3474 2.7136-0.2412 1.8494-0.4792 3.7-0.6895 5.5614-0.1223 1.0834-0.2258 2.1738-0.3376 3.2614-0.1743 1.6973-0.3455 3.3958-0.4941 5.103-0.1011 1.1592-0.1882 2.3239-0.2773 3.4875-0.127 1.6541-0.2466 3.3109-0.3496 4.9741-0.074 1.1948-0.1392 2.3931-0.2007 3.5925-0.085 1.6531-0.1584 3.3105-0.22 4.9727-0.0447 1.207-0.0862 2.4155-0.1187 3.6274-0.0452 1.6851-0.0735 3.3767-0.0947 5.071-0.0149 1.1923-0.0322 2.3836-0.0354 3.5804-0.0046 1.7623 0.0127 3.5332 0.0337 5.3054 0.0134 1.1372 0.019 2.2715 0.043 3.4128 0.041 1.9561 0.1099 3.9231 0.1821 5.8914 0.0352 0.9652 0.0571 1.9253 0.0999 2.8933 0.1299 2.9399 0.2888 5.8911 0.4873 8.8574 3.7952 56.733 21.44 101.38 52.963 133.93 18.187 18.807 38.631 31.387 61.33 37.754l127.11 35.657c-22.698-6.3673-43.142-18.947-61.33-37.754-31.524-32.552-49.168-77.2-52.963-133.93-0.1985-2.9664-0.3574-5.9176-0.4873-8.8574-0.0427-0.9681-0.0647-1.9281-0.0999-2.8934-0.0723-1.9681-0.1411-3.9352-0.1821-5.8914-0.0239-1.1414-0.0295-2.2756-0.043-3.4128-0.021-1.7722-0.0383-3.543-0.0337-5.3054 0.0032-1.1967 0.0205-2.3879 0.0354-3.5802 0.0212-1.694 0.0496-3.3853 0.0947-5.0701 0.0325-1.2135 0.074-2.4235 0.1189-3.6322 0.0615-1.6589 0.1348-3.3136 0.2195-4.9636 0.0618-1.2028 0.1272-2.4041 0.2012-3.6021 0.1028-1.6604 0.2224-3.3143 0.3489-4.9656 0.0894-1.1655 0.1768-2.3318 0.2778-3.4928 0.1487-1.7067 0.3198-3.4048 0.4941-5.1017 0.1118-1.0875 0.2153-2.1782 0.3376-3.2617 0.2097-1.8586 0.4475-3.7063 0.6882-5.5527 0.1184-0.9075 0.2231-1.8202 0.3491-2.7249 0.3799-2.7335 0.7891-5.4557 1.2373-8.1628 0.0061-0.0364 0.0129-0.0724 0.019-0.1086 0.4458-2.6868 0.9292-5.3591 1.4424-8.0199 0.1709-0.8865 0.3625-1.765 0.541-2.6486 0.3628-1.7981 0.7288-3.595 1.1228-5.381 0.2305-1.0454 0.4795-2.0836 0.7207-3.125 0.3743-1.6163 0.752-3.2311 1.1519-4.8375 0.2727-1.0959 0.5596-2.1863 0.844-3.2776 0.4026-1.5431 0.812-3.0833 1.2383-4.6172 0.3079-1.108 0.6245-2.2126 0.9448-3.3162 0.4392-1.5131 0.8901-3.0217 1.3525-4.5258 0.3369-1.0956 0.6772-2.1901 1.0264-3.2809 0.4844-1.5129 0.9856-3.0195 1.4939-4.5232 0.3586-1.0619 0.7153-2.1245 1.0859-3.1816 0.5439-1.5513 1.1101-3.0939 1.6794-4.6353 0.3665-0.9919 0.7249-1.9869 1.1018-2.9749 0.6458-1.6919 1.3196-3.373 1.9963-5.053 0.3311-0.8215 0.6484-1.6481 0.9868-2.4666 1.0295-2.4913 2.0886-4.9712 3.187-7.436 0.0085-0.0192 0.0178-0.0381 0.0264-0.0574 1.0903-2.4453 2.2188-4.8757 3.3765-7.2947 0.3857-0.8054 0.792-1.6028 1.1851-2.4053 0.7974-1.6284 1.5977-3.2556 2.426-4.8721 0.4851-0.947 0.989-1.8867 1.4849-2.8298 0.7695-1.4631 1.5425-2.925 2.3376-4.3787 0.5422-0.9915 1.0986-1.9773 1.6526-2.9641 0.7839-1.396 1.575-2.7891 2.3826-4.1758 0.583-1.001 1.1748-1.9985 1.7703-2.9946 0.8176-1.3682 1.647-2.7317 2.488-4.0908 0.6113-0.988 1.2261-1.9749 1.8501-2.9583 0.8662-1.366 1.7495-2.7253 2.6396-4.082 0.6284-0.9575 1.2544-1.916 1.8945-2.8689 0.9399-1.3992 1.9021-2.7898 2.8677-4.1792 0.6201-0.8921 1.2319-1.7874 1.8625-2.6755 1.0825-1.5244 2.1931-3.0381 3.3066-4.5505 0.5437-0.7385 1.074-1.4822 1.625-2.2178 1.6785-2.2405 3.386-4.4697 5.1333-6.6836 0.0164-0.021 0.0339-0.0415 0.0505-0.0625 1.7307-2.1921 3.4993-4.3696 5.2974-6.5356 0.6016-0.7244 1.2236-1.4407 1.8325-2.1621 1.2461-1.4768 2.4951-2.9526 3.7729-4.417 0.5664-0.6494 1.1453-1.2939 1.7178-1.9407 1.2788-1.4443 2.5701-2.8838 3.8799-4.3162 0.6563-0.7178 1.3164-1.4341 1.9805-2.1489 1.3269-1.4282 2.6724-2.8494 4.0303-4.2656 0.6045-0.6309 1.2031-1.2639 1.814-1.8921 1.96-2.0159 3.9424-4.0227 5.9653-6.0139 2.0103-1.9797 4.0486-3.9294 6.1018-5.863 0.6309-0.5942 1.2693-1.1804 1.9041-1.7703 1.4688-1.3645 2.947-2.7185 4.4375-4.0598 0.7036-0.6335 1.4087-1.2659 2.1172-1.894 1.5811-1.4019 3.1763-2.7886 4.7815-4.1648 0.5571-0.4778 1.1086-0.9614 1.6687-1.436 2.1492-1.8213 4.3184-3.6213 6.5103-5.397 0.4531-0.3669 0.9141-0.7249 1.3687-1.0898 1.7627-1.4146 3.5374-2.8164 5.3271-4.2017 0.738-0.5713 1.4814-1.1367 2.2241-1.7029 1.5857-1.2092 3.1824-2.4065 4.7896-3.593 0.7371-0.5442 1.4727-1.0906 2.2144-1.6301 2.137-1.5544 4.2883-3.0938 6.4626-4.6089 0.3552-0.2476 0.7141-0.4912 1.0703-0.7375 2.1348-1.4771 4.2864-2.9363 6.4568-4.3755 0.2888-0.1917 0.5747-0.3862 0.8643-0.5771 2.3032-1.5186 4.6304-3.0115 6.9731-4.4875 0.4922-0.3101 0.9851-0.6191 1.479-0.9272 2.3481-1.4651 4.7119-2.9133 7.0999-4.3362 0.3142-0.187 0.6321-0.3704 0.9468-0.5569 2.2556-1.3357 4.5298-2.6519 6.8208-3.9502 0.3796-0.2151 0.7566-0.4331 1.1372-0.6475 2.4255-1.3643 4.8738-2.7046 7.3386-4.0268 0.5164-0.2769 1.0342-0.5522 1.5522-0.8274 2.5024-1.3291 5.02-2.6421 7.5627-3.9282 0.2444-0.1238 0.4919-0.2439 0.7368-0.3672 2.4189-1.2175 4.8584-2.4133 7.3137-3.592 0.4517-0.217 0.9009-0.4363 1.3535-0.6519 2.5532-1.2153 5.1279-2.408 7.7205-3.5815 0.5334-0.2415 1.0691-0.4805 1.6042-0.72 2.6577-1.1907 5.3301-2.3662 8.0288-3.5132 0.5281-0.2246 1.0667-0.4377 1.5964-0.6606 2.3975-1.0085 4.8042-2.0071 7.2336-2.9812 1.0586-0.4246 2.1323-0.8328 3.197-1.2507 1.9207-0.7542 3.8416-1.5078 5.7817-2.2407 1.218-0.46 2.4497-0.9055 3.6755-1.3574 1.811-0.6675 3.6235-1.3337 5.4517-1.9829 1.2988-0.4614 2.6086-0.9109 3.9163-1.363 1.783-0.6167 3.5696-1.2297 5.3684-1.8293 1.3455-0.4482 2.6987-0.8882 4.053-1.3269 1.7891-0.5798 3.5842-1.1531 5.3892-1.7163 1.374-0.4287 2.7527-0.8521 4.136-1.2712 1.8159-0.5503 3.6406-1.0908 5.4722-1.6245 1.3889-0.4045 2.7795-0.8076 4.1775-1.2029 1.8613-0.5259 3.7346-1.0391 5.6121-1.5483 1.3865-0.376 2.771-0.7539 4.1663-1.1206 1.9407-0.5103 3.897-1.0044 5.8545-1.4966 1.3506-0.3398 2.6958-0.6851 4.0544-1.0161 2.0981-0.5115 4.2153-1.0029 6.3328-1.4941 1.238-0.2871 2.467-0.5835 3.7114-0.8635 2.5696-0.5786 5.1619-1.1335 7.7593-1.6824 0.8093-0.1711 1.6084-0.353 2.4202-0.521 3.4189-0.7083 6.8616-1.3906 10.328-2.0479 0.8926-0.1692 1.7988-0.324 2.6948-0.49 2.583-0.4783 5.1699-0.9519 7.7793-1.4021 1.3125-0.2263 2.6396-0.4368 3.9587-0.656 2.2163-0.3684 4.4326-0.7366 6.6677-1.085 1.4614-0.2278 2.936-0.4419 4.4058-0.6611 2.1179-0.3159 4.2373-0.6301 6.3718-0.9282 1.5398-0.2151 3.0901-0.4192 4.6384-0.625 2.2815-0.3032 4.5659-0.6035 6.8662-0.8865 0.9077-0.1118 1.8154-0.2231 2.7258-0.3318 3.408-0.4063 6.8291-0.7988 10.278-1.1614 68.343-7.1831 129.63-3.1614 183.86 12.052l-127.11-35.657z" style="fill: url(#gradient-6);"/>
    <g enable-background="new    ">
      <defs>
        <path id="f" d="m3382.7 1308l127.11 35.657c-18.478-5.1833-38.168-6.6761-59.071-4.4791l-127.11-35.657c20.903-2.197 40.594-0.7043 59.071 4.4791z" enable-background="new    "/>
      </defs>
      <clipPath id="g">
        <path d="m3382.7 1308l127.11 35.657c-18.478-5.1833-38.168-6.6761-59.071-4.4791l-127.11-35.657c20.903-2.197 40.594-0.7043 59.071 4.4791z" enable-background="new    " transform="matrix(1, 0, 0, 1, 0, 0)" overflow="visible"/>
      </clipPath>
      <path d="m3450.7 1339.2l-127.11-35.657c20.903-2.1969 40.594-0.7042 59.071 4.4791l127.11 35.656c-18.478-5.1832-38.168-6.676-59.071-4.479" clip-path="url(#g)" style="fill: url(#gradient-7);"/>
    </g>
    <path d="m3299.5 1527.2c-3.1575-47.201 9.9407-89.163 39.335-125.84 0.8694-1.0844 1.7468-2.1523 2.6299-3.2087 0.2896-0.3467 0.5833-0.6851 0.8745-1.0286 0.5762-0.6799 1.1533-1.3575 1.7354-2.0256 0.9609-1.1031 1.9297-2.1907 2.9065-3.2617 0.0981-0.1078 0.1946-0.2196 0.293-0.3271 1.0754-1.1736 2.1621-2.3242 3.2566-3.4592 0.3367-0.3489 0.6775-0.689 1.0159-1.0342 0.7693-0.7852 1.5415-1.5645 2.3203-2.3308 0.4067-0.4003 0.8164-0.7953 1.2256-1.1904 0.7336-0.7081 1.4712-1.4082 2.2129-2.0996 0.4148-0.3867 0.8296-0.7733 1.2468-1.1548 0.7925-0.7245 1.5911-1.4363 2.3928-2.1421 0.3599-0.3167 0.717-0.6387 1.0786-0.9517 1.1614-1.0049 2.3301-1.9946 3.5105-2.9607 0.0549-0.0449 0.1108-0.0874 0.1655-0.1321 1.1257-0.9191 2.2615-1.8181 3.4048-2.7018 0.3879-0.2998 0.78-0.5909 1.1699-0.8867 0.8235-0.6249 1.6501-1.2435 2.4827-1.8502 0.4841-0.3527 0.9702-0.7009 1.4573-1.0476 0.6377-0.4537 1.2776-0.9031 1.9204-1.3464 0.5129-0.3538 1.0276-0.7041 1.5439-1.0511 0.6482-0.4357 1.2993-0.8651 1.9529-1.2904 0.5186-0.3374 1.0376-0.6733 1.5596-1.0042 0.6614-0.4193 1.3267-0.8306 1.9932-1.239 0.521-0.3193 1.0417-0.6392 1.5659-0.952 0.6816-0.4069 1.3682-0.8038 2.0554-1.1996 0.5156-0.297 1.03-0.5966 1.5491-0.8875 0.7129-0.3997 1.4314-0.7875 2.1501-1.1753 0.502-0.271 1.0017-0.5466 1.5066-0.8118 0.7651-0.4021 1.5376-0.7904 2.3093-1.1794 0.4651-0.2344 0.927-0.4753 1.3945-0.7051 0.9153-0.4497 1.8386-0.8831 2.7627-1.3145 0.3303-0.1542 0.657-0.3159 0.9885-0.4678 1.2598-0.5769 2.5276-1.1372 3.8042-1.6805 0.1042-0.0443 0.2104-0.0852 0.3147-0.1294 1.4194-0.6005 2.8513-1.1754 4.2913-1.7341 0.4434-0.172 0.8887-0.3398 1.334-0.5079 1.2192-0.4603 2.4463-0.9055 3.6802-1.3364 0.3665-0.1278 0.7302-0.2606 1.0979-0.3859 1.5596-0.5314 3.1304-1.0402 4.7131-1.5245 0.3452-0.1057 0.6943-0.2036 1.0405-0.307 1.2803-0.3823 2.5679-0.7495 3.863-1.1013 0.4724-0.1283 0.9453-0.256 1.4197-0.3802 1.4375-0.3765 2.8833-0.7366 4.3391-1.0759 0.1978-0.046 0.3931-0.0972 0.5911-0.1426 1.6423-0.3762 3.2988-0.7234 4.9646-1.0525 0.4534-0.0895 0.9097-0.1729 1.3645-0.2588 1.2959-0.2451 2.5986-0.4758 3.9087-0.6926 0.4587-0.0758 0.9163-0.1545 1.3767-0.2269 1.6953-0.2665 3.3997-0.5145 5.1184-0.7339 1.3379-0.1708 2.6821-0.3291 4.0344-0.4713l-127.11-35.656c-1.3096 0.1377-2.6125 0.2887-3.9089 0.4531-0.043 0.0055-0.085 0.0129-0.1277 0.0183-1.718 0.2192-3.4216 0.4673-5.116 0.7336-0.4609 0.0725-0.9185 0.1512-1.3777 0.2272-1.3083 0.2164-2.6096 0.4469-3.9038 0.6915-0.4573 0.0864-0.9158 0.1703-1.3711 0.2603-1.6648 0.3289-3.3208 0.6759-4.9622 1.052-0.198 0.0454-0.3933 0.0964-0.5911 0.1426-1.4558 0.3392-2.9016 0.6995-4.3391 1.0759-0.4744 0.1243-0.9473 0.252-1.4197 0.3801-1.2952 0.3518-2.5828 0.7191-3.863 1.1013-0.3462 0.1035-0.6953 0.2014-1.0405 0.3071-1.5828 0.4844-3.1536 0.9932-4.7131 1.5244-0.3679 0.1255-0.7319 0.2583-1.0986 0.3862-1.2327 0.4303-2.4585 0.8751-3.6765 1.335-0.4473 0.1687-0.8943 0.3374-1.3394 0.5101-1.436 0.5573-2.8643 1.1307-4.2798 1.7294-0.0884 0.0374-0.179 0.0706-0.2673 0.1082-0.0198 0.0083-0.0388 0.0173-0.0583 0.0258-1.2751 0.5427-2.5417 1.1024-3.8003 1.6788-0.3381 0.1549-0.6714 0.3198-1.0083 0.4773-0.9182 0.4286-1.8354 0.8591-2.7446 1.3058-0.4678 0.2297-0.9297 0.4707-1.3948 0.7052-0.7717 0.3889-1.5442 0.7771-2.3093 1.1793-0.5061 0.266-1.0073 0.5421-1.5105 0.8138-0.7163 0.3866-1.4326 0.7732-2.1431 1.1715-0.5227 0.293-1.0408 0.5946-1.5603 0.8939-0.6836 0.3938-1.3665 0.7886-2.0447 1.1932-0.5264 0.3141-1.0493 0.6354-1.5725 0.9559-0.6646 0.4075-1.3281 0.8175-1.9873 1.2355-0.5234 0.3317-1.0442 0.6688-1.5645 1.0072-0.6514 0.424-1.3008 0.8523-1.9473 1.2867-0.5181 0.3483-1.0347 0.7001-1.5493 1.0551-0.6411 0.442-1.2793 0.8901-1.915 1.3425-0.2896 0.2061-0.5837 0.4033-0.8723 0.6116-0.198 0.1431-0.3916 0.2952-0.5891 0.4392-0.8311 0.6055-1.6558 1.2229-2.4775 1.8462-0.3916 0.2971-0.7854 0.5896-1.175 0.8906-1.135 0.8774-2.2627 1.7703-3.3806 2.6824-0.0632 0.0515-0.1274 0.1006-0.1907 0.1522-1.179 0.965-2.3464 1.9537-3.5063 2.9574-0.3638 0.3148-0.7231 0.6387-1.085 0.9573-0.7996 0.7039-1.5959 1.4136-2.3862 2.136-0.4187 0.3828-0.8347 0.7706-1.251 1.1587-0.741 0.6907-1.4773 1.3896-2.2102 2.0969-0.4094 0.3955-0.8191 0.7906-1.2261 1.1912-0.7788 0.7664-1.551 1.5454-2.3203 2.3307-0.3384 0.3453-0.6794 0.6853-1.0159 1.0343-1.0945 1.135-2.1812 2.2855-3.2566 3.4592-0.0984 0.1074-0.1948 0.2192-0.293 0.3271-0.9771 1.071-1.9456 2.1586-2.9065 3.2616-0.0962 0.1105-0.1951 0.2159-0.291 0.3268-0.4851 0.5592-0.9636 1.1313-1.4443 1.6989-0.2913 0.3436-0.585 0.682-0.8745 1.0286-0.8831 1.0565-1.7605 2.1244-2.6299 3.2087-29.395 36.674-42.493 78.636-39.335 125.84 3.0728 45.934 21.674 84.09 55.876 114.41 18.694 16.557 38.934 27.899 60.73 34.013l127.11 35.657c-21.796-6.1141-42.036-17.456-60.73-34.013-34.202-30.322-52.803-68.478-55.876-114.41z" style="fill: url(#gradient-8);"/>
    <path d="m3709.3 261.52c76.067 54.864 117.5 133.06 124.29 234.59 2.741 40.971-1.6829 81.293-13.283 120.9-11.605 39.643-29.843 76.982-54.778 111.97-29.387 41.203-75.665 88-138.85 140.38-24.156 19.719-41.381 34.242-51.674 43.554-40.549 37.299-67.463 74.441-80.751 111.42-13.287 36.992-17.867 86.384-13.732 148.21l0.8213 12.278-77.69 7.2229c-0.9863-5.5913-1.8552-11.686-2.5916-18.286-0.7659-6.5889-1.5671-16.532-2.4536-29.786-2.4897-37.219-1.957-72.198 1.6094-104.99 3.5667-32.794 10.508-63.393 20.763-91.805 7.1226-20.432 19.897-51.636 38.384-93.618 55.131-120.13 79.782-223.77 73.956-310.86-5.0642-75.705-26.428-134.13-64.044-175.28-37.654-41.143-85.997-58.644-145.03-52.44-40.979 4.3071-78.467 20.017-112.43 47.111-33.989 27.097-50.38 49.445-49.199 67.095 0.5498 8.2194 10.695 15.113 30.463 20.648 19.746 5.5444 34.004 10.414 42.77 14.554 32.625 16.927 56.28 35.257 70.92 54.985 14.642 19.76 22.941 43.814 24.84 72.201 2.7451 41.034-8.6479 76.845-34.114 107.49-25.48 30.662-58.957 48.137-100.39 52.492-45.063 4.7363-83.359-9.1553-114.88-41.747-31.523-32.552-49.168-77.2-52.963-133.93-6.6638-99.616 25.366-184.25 96.142-253.91 70.753-69.67 168.09-111.01 292.04-124.04 118.49-12.454 215.78 8.7744 291.85 63.614zm-370.46 1139.8c-29.395 36.674-42.493 78.636-39.335 125.84 3.0728 45.934 21.674 84.09 55.876 114.41 34.191 30.283 73.558 43.12 118.15 38.433 45.168-4.7473 82.467-25.301 111.88-61.668 29.415-36.374 42.556-78.152 39.397-125.37-3.1995-47.83-21.73-86.626-55.567-116.35-33.836-29.719-73.346-42.2-118.51-37.452-45.206 4.7515-82.492 25.494-111.89 62.16z" style="fill: url(#gradient-9);"/>
  </g>
  <g transform="matrix(1.028653, 0, 0, 0.840726, 260.321564, 146.143967)" style="">
    <path d="m28.18154,25.21157c0-.49899.12475-.96159.37424-1.38781 .25989-.43661.60294-.78486 1.02916-1.04475s.88882-.38983 1.38781-.38983c.48859,0 .946.12994 1.37221.38983s.76407.60814 1.01357,1.04475c.25989.42622.38983.88882.38983,1.38781 0,.50938-.12995.98238-.38983,1.41899-.24949.42622-.59255.76407-1.02916,1.01357-.42622.24949-.87842.37424-1.35662.37424-.48859,0-.95119-.12475-1.38781-.37424-.42622-.24949-.76927-.58735-1.02916-1.01357-.24949-.43661-.37424-.90961-.37424-1.41899zm-6.42446,2.60409-1.37221-1.20068c-1.62171.9356-3.52409,1.4034-5.70716,1.4034-1.66329,0-3.18624-.28068-4.56885-.84204s-2.5677-1.36702-3.55528-2.41697c-.97718-1.04995-1.73086-2.31821-2.26104-3.80478-.53017-1.49696-.79526-3.14465-.79526-4.94309s.26509-3.44093.79526-4.9275c.54057-1.49696 1.29944-2.76522 2.27663-3.80477s2.15708-1.84001 3.53969-2.40137 2.90556-.84204 4.56885-.84204 3.18624.28068 4.56885.84204c1.393.56136 2.5729,1.36182 3.53969,2.40137 .97718,1.03956 1.73086,2.30781 2.26103,3.80477 .54057,1.48656.81086,3.12906.81086,4.9275 0,2.95234-.68091,5.43168-2.04273,7.43802l1.23187,1.09154c.65492.54057 1.09673.99797 1.32543,1.37221 .2287.36384.34305.75368.34305,1.1695 0,.63413-.20791,1.1643-.62373,1.59052-.41582.43661-.92001.65492-1.51255.65492-.30147,0-.58215-.04158-.84204-.12475-.24949-.08317-.51978-.2287-.81086-.43661s-.68091-.52497-1.1695-.95119zm-7.07937-18.9615c-1.25786,0-2.31301.33266-3.16545.99797s-1.47617,1.54894-1.8712,2.65087c-.39503,1.09153-.59255,2.26104-.59255,3.5085 0,1.25786.19751,2.43776.59255,3.53969s1.01876,1.98555 1.8712,2.65087 1.90759.99797 3.16545.99797c.58215,0 1.10193-.07796 1.55933-.2339l-.06237-.03119c-.66532-.59255-1.10713-1.06555-1.32543-1.41899s-.32746-.73289-.32746-1.13831c0-.64453.20271-1.1747.60814-1.59052 .41582-.42622.9252-.63933 1.52815-.63933 .44701,0 .85763.09876 1.23187.29627 .38464.19752.90961.59774 1.57493,1.20069l.15593.12475c.44701-1.12272.67051-2.37538.67051-3.75799 0-1.28905-.19752-2.47414-.59255-3.55528s-1.01877-1.94917-1.8712-2.60409c-.84204-.66532-1.89199-.99797-3.14985-.99797z" style="fill: url(#gradient-10);"/>
    <path d="m28.18154,54.14753c0-.49899.12475-.96159.37424-1.38781 .25989-.43661.60294-.78486 1.02916-1.04476s.88882-.38983 1.38781-.38983c.48859,0 .946.12994 1.37221.38983s.76407.60814 1.01357,1.04476c.25989.42622.38983.88882.38983,1.38781 0,.50938-.12994.98238-.38983,1.41899-.24949.42622-.59255.76407-1.02916,1.01357-.42622.24949-.87842.37424-1.35662.37424-.48859,0-.95119-.12475-1.38781-.37424-.42622-.24949-.76927-.58735-1.02916-1.01357-.24949-.43661-.37424-.90961-.37424-1.41899zm-21.03541-2.88477 4.98987-13.5662c.44701-1.19549.81605-2.07911 1.10713-2.65086 .29108-.58215.6913-1.07074 1.20069-1.46578 .50938-.40543 1.1747-.60814 1.99595-.60814 .84204,0 1.52295.20271 2.04273.60814 .53017.40543.946.91481 1.24747,1.52815 .31187.60294.67571,1.46577 1.09153,2.58849l4.97427,13.5662c.31187.82125.51458,1.45538.60814,1.90239 .10396.43661.15593.87842.15593,1.32543 0,.64453-.2287,1.1643-.6861,1.55933-.44701.38464-1.04476.57695-1.79324.57695-.51978,0-.95639-.10396-1.30984-.31187s-.63933-.49899-.85764-.87323c-.20791-.37424-.39503-.83164-.56136-1.37221l-.62373-2.04273h-8.49837l-.63933,2.04273c-.27028.84204-.59774,1.48137-.98238,1.91798-.37424.42622-.95119.63933-1.73086.63933-.73808,0-1.34103-.19232-1.80883-.57695-.45741-.39503-.68611-.91481-.68611-1.55933 0-.38464.04158-.78487.12475-1.20069 .09356-.42622.30667-1.10193.63933-2.02713zm12.03806-4.08546-2.58849-8.40481h-.06237l-2.77562,8.40481h5.42648z" style="fill: url(#gradient-11);"/>
    <path d="m39.228 9.0008h15.295" stroke="#7f7f7f" stroke-linecap="round" stroke-linejoin="round" stroke-width="3.125" style="fill: url(#gradient-12);"/>
    <path d="m39.228 16.501h15.295" stroke="#7f7f7f" stroke-linecap="round" stroke-linejoin="round" stroke-width="3.125" style="fill: url(#gradient-13);"/>
    <path d="m39.228 24.001h15.295" stroke="#7f7f7f" stroke-linecap="round" stroke-linejoin="round" stroke-width="3.125" style="fill: url(#gradient-14);"/>
    <path d="m39.228 37.55h15.295" stroke="#7f7f7f" stroke-linecap="round" stroke-linejoin="round" stroke-width="3.125" style="fill: url(#gradient-15);"/>
    <path d="m39.228 45.05h15.295" stroke="#7f7f7f" stroke-linecap="round" stroke-linejoin="round" stroke-width="3.125" style="fill: url(#gradient-16);"/>
    <path d="m39.228 52.55h15.295" stroke="#7f7f7f" stroke-linecap="round" stroke-linejoin="round" stroke-width="3.125" style="fill: url(#gradient-17);"/>
  </g>
</svg>